<?xml version="1.0" encoding="utf-8"?>
<!-- Generator: Adobe Illustrator 16.0.0, SVG Export Plug-In . SVG Version: 6.00 Build 0)  -->
<!DOCTYPE svg PUBLIC "-//W3C//DTD SVG 1.1//EN" "http://www.w3.org/Graphics/SVG/1.1/DTD/svg11.dtd">
<svg version="1.1" id="Layer_1" xmlns="http://www.w3.org/2000/svg" xmlns:xlink="http://www.w3.org/1999/xlink" x="0px" y="0px"
	 width="698.028px" height="183.189px" viewBox="0 0 698.028 183.189" enable-background="new 0 0 698.028 183.189"
	 xml:space="preserve">
<path fill="#4E4E4E" d="M65.38-252.894c-0.036-0.024-0.065-0.056-0.107-0.075c-3.517-1.542-7.399-2.416-11.481-2.457
	c-0.012,0-0.024,0.003-0.036,0.003c-0.006,0-0.011-0.003-0.018-0.003c-0.647-0.006-1.286,0.02-1.921,0.061
	c-0.444,0.026-0.885,0.069-1.325,0.113c-0.07,0.007-0.139,0.011-0.208,0.018v0.006c-5.149,0.562-9.913,2.44-13.914,5.322
	l-2.875-4.239c-0.17-0.25-0.47-0.37-0.763-0.308c-0.295,0.062-0.519,0.293-0.573,0.589l-1.785,9.852l-1.258,6.951
	c-0.042,0.224,0.021,0.45,0.171,0.62c0.139,0.158,0.337,0.249,0.547,0.251c0.015,0,0.031-0.002,0.046-0.002l7.812-0.415l8.795-0.468
	c0.296-0.017,0.551-0.203,0.653-0.483c0.103-0.279,0.03-0.59-0.188-0.789l-3.63-3.424c2.274-1.475,4.883-2.466,7.688-2.84
	l0.005,0.083c0.856-0.108,1.726-0.181,2.617-0.173c10.426,0.104,18.79,8.639,18.686,19.062
	c-0.104,10.425-8.637,18.791-19.062,18.688c-10.423-0.104-18.791-8.639-18.687-19.063c0.009-0.91,0.105-1.797,0.238-2.67
	l-10.054-3.797c-0.448,1.994-0.706,4.058-0.727,6.185c-0.163,16.25,12.878,29.552,29.126,29.714s29.551-12.878,29.714-29.128
	C82.985-237.813,75.777-248.272,65.38-252.894z"/>
<polygon fill="#FAA31A" points="135.332,20.442 122.38,0.31 111.199,0.31 73.39,0.31 54.775,32.643 80.573,44.727 98.682,13.285 
	103.349,20.535 111.262,32.838 97.451,39.949 133.899,45.804 148.068,13.886 "/>
<polygon fill="#FAA31A" points="12.069,108.935 1.17,130.247 6.795,139.914 25.792,172.606 63.104,172.451 60.587,144.067 
	24.298,144.22 28.221,136.537 34.88,123.517 47.969,131.883 34.712,97.421 0,101.219 "/>
<polygon fill="#FAA31A" points="148.924,168.911 172.859,168.62 178.797,159.15 198.864,127.102 181.341,94.162 157.406,109.617 
	174.444,141.65 165.829,141.759 151.199,141.933 152.502,126.454 128.194,154.241 147.721,183.189 "/>
<g>
	<g>
		<circle fill="#454545" cx="-104.718" cy="16.723" r="8.654"/>
	</g>
	<g>
		<path fill="#454545" d="M-102.485,48.267h-5.024c-1.696,0-3.071-1.374-3.071-3.07v-26.24c0-1.696,1.375-3.071,3.071-3.071h5.024
			c1.696,0,3.071,1.375,3.071,3.071v26.24C-99.415,46.893-100.789,48.267-102.485,48.267z"/>
	</g>
	<g>
		<circle fill="#454545" cx="-54.75" cy="16.723" r="8.654"/>
	</g>
	<g>
		<path fill="#454545" d="M-52.517,48.267h-5.024c-1.695,0-3.07-1.374-3.07-3.07v-26.24c0-1.696,1.375-3.071,3.07-3.071h5.024
			c1.696,0,3.071,1.375,3.071,3.071v26.24C-49.446,46.893-50.821,48.267-52.517,48.267z"/>
	</g>
	<g>
		<rect x="-105.835" y="18.118" fill="#454545" width="48.014" height="8.096"/>
	</g>
	<g>
		<rect x="-105.835" y="23.632" fill="#454545" width="48.014" height="22.402"/>
	</g>
	<g>
		<path fill="#454545" d="M-56.424-16.752c0-4.484-3.636-8.119-8.12-8.119h-13.654h-3.07h-13.655c-4.484,0-8.118,3.635-8.118,8.119
			c0,0,3.908,20.308,3.908,27.658c0,7.352-0.273,8.119,4.21,8.119h15.187h0.007h15.186c4.484,0,4.212-0.768,4.212-8.119
			C-60.333,3.556-56.424-16.752-56.424-16.752z"/>
	</g>
	<g>
		<path fill="#FFFFFF" d="M-91.703,25.523c0,0,1.4-0.025,3.5-0.063c1.05-0.01,2.275-0.021,3.587-0.034
			c1.313-0.005,2.713-0.009,4.113-0.014c1.4,0.005,2.8,0.01,4.113,0.015c1.312,0.013,2.538,0.023,3.588,0.034
			c2.1,0.038,3.5,0.062,3.5,0.062c0.053,0.002,0.096,0.045,0.094,0.099c0,0.052-0.043,0.094-0.094,0.096c0,0-1.4,0.024-3.5,0.062
			c-1.05,0.01-2.275,0.021-3.588,0.034c-1.313,0.005-2.713,0.01-4.113,0.015c-1.4-0.005-2.8-0.01-4.113-0.014
			c-1.312-0.013-2.538-0.024-3.587-0.034c-2.101-0.039-3.5-0.063-3.5-0.063c-0.054-0.002-0.096-0.046-0.095-0.099
			C-91.796,25.566-91.754,25.525-91.703,25.523z"/>
	</g>
	<g>
		<path fill="#FFFFFF" d="M-91.703,17.358c0,0,1.4-0.025,3.5-0.063c1.05-0.01,2.275-0.021,3.587-0.034
			c1.313-0.005,2.713-0.01,4.113-0.015c1.4,0.005,2.8,0.011,4.113,0.016c1.312,0.013,2.538,0.023,3.588,0.034
			c2.1,0.037,3.5,0.062,3.5,0.062c0.053,0.001,0.096,0.045,0.094,0.099c0,0.052-0.043,0.094-0.094,0.095c0,0-1.4,0.025-3.5,0.063
			c-1.05,0.01-2.275,0.021-3.588,0.033c-1.313,0.006-2.713,0.011-4.113,0.016c-1.4-0.005-2.8-0.01-4.113-0.014
			c-1.312-0.013-2.538-0.024-3.587-0.034c-2.101-0.039-3.5-0.064-3.5-0.064c-0.054-0.001-0.096-0.045-0.095-0.099
			C-91.796,17.401-91.754,17.359-91.703,17.358z"/>
	</g>
	<g>
		<path fill="#FFFFFF" d="M-60.794,28.587c0,0,0.033,0.934,0.063,2.333c0.011,0.7,0.022,1.518,0.034,2.392
			c0.004,0.875,0.01,1.809,0.015,2.742c-0.006,0.934-0.011,1.867-0.015,2.742c-0.013,0.875-0.025,1.691-0.035,2.392
			c-0.019,0.7-0.033,1.283-0.043,1.691c-0.014,0.408-0.02,0.642-0.02,0.642c-0.002,0.054-0.046,0.096-0.1,0.095
			c-0.052-0.002-0.093-0.043-0.094-0.095c0,0-0.007-0.233-0.02-0.642c-0.01-0.408-0.025-0.991-0.043-1.691
			c-0.01-0.7-0.022-1.517-0.035-2.392c-0.004-0.875-0.009-1.809-0.015-2.742c0.005-0.934,0.009-1.867,0.014-2.742
			c0.014-0.874,0.024-1.691,0.035-2.392c0.029-1.399,0.063-2.333,0.063-2.333c0.001-0.054,0.047-0.096,0.1-0.094
			C-60.837,28.495-60.796,28.537-60.794,28.587z"/>
	</g>
	<g>
		<path fill="#FFFFFF" d="M-98.899,28.587c0,0,0.034,0.934,0.064,2.333c0.01,0.7,0.022,1.518,0.034,2.392
			c0.005,0.875,0.009,1.809,0.014,2.742c-0.004,0.934-0.01,1.867-0.015,2.742c-0.013,0.875-0.024,1.691-0.034,2.392
			c-0.019,0.7-0.033,1.283-0.044,1.691c-0.012,0.408-0.019,0.642-0.019,0.642c-0.001,0.054-0.046,0.096-0.099,0.095
			c-0.052-0.002-0.093-0.043-0.094-0.095c0,0-0.007-0.233-0.019-0.642c-0.011-0.408-0.026-0.991-0.044-1.691
			c-0.01-0.7-0.022-1.517-0.035-2.392c-0.005-0.875-0.01-1.809-0.015-2.742c0.005-0.934,0.009-1.867,0.014-2.742
			c0.012-0.874,0.024-1.691,0.034-2.392c0.03-1.399,0.064-2.333,0.064-2.333c0.001-0.054,0.046-0.096,0.1-0.094
			C-98.941,28.495-98.9,28.537-98.899,28.587z"/>
	</g>
	<g>
		<path fill="#FFFFFF" d="M-60.287,23.499c0,0-0.046-0.036-0.131-0.107c-0.084-0.072-0.214-0.165-0.367-0.31
			c-0.154-0.142-0.344-0.314-0.541-0.528c-0.199-0.211-0.417-0.46-0.624-0.754c-0.108-0.143-0.216-0.297-0.316-0.463
			c-0.108-0.161-0.207-0.335-0.306-0.517c-0.202-0.36-0.378-0.76-0.533-1.184c-0.143-0.427-0.279-0.874-0.357-1.342
			c-0.092-0.466-0.136-0.947-0.146-1.429c0.003-0.24-0.002-0.481,0.023-0.721c0.014-0.24,0.043-0.483,0.074-0.707
			c0.074-0.473,0.182-0.927,0.316-1.357c0.273-0.86,0.679-1.607,1.08-2.201c0.205-0.296,0.407-0.556,0.603-0.771
			c0.192-0.22,0.37-0.4,0.522-0.544c0.149-0.146,0.272-0.252,0.358-0.324c0.084-0.073,0.13-0.111,0.13-0.111
			c0.039-0.035,0.101-0.031,0.136,0.01c0.033,0.039,0.03,0.097-0.005,0.132l-0.004,0.004c0,0-0.042,0.04-0.121,0.116
			c-0.078,0.074-0.193,0.187-0.331,0.336c-0.14,0.148-0.304,0.333-0.475,0.557c-0.179,0.22-0.356,0.482-0.548,0.771
			c-0.371,0.584-0.724,1.316-0.976,2.143c-0.124,0.412-0.222,0.849-0.286,1.292c-0.032,0.235-0.056,0.455-0.066,0.684
			c-0.02,0.229-0.014,0.458-0.015,0.688c0.009,0.458,0.044,0.918,0.126,1.362c0.069,0.447,0.197,0.876,0.327,1.286
			c0.149,0.404,0.304,0.792,0.485,1.145c0.088,0.177,0.177,0.349,0.277,0.507c0.092,0.162,0.188,0.314,0.289,0.455
			c0.094,0.146,0.193,0.279,0.291,0.403c0.093,0.127,0.184,0.247,0.277,0.353c0.179,0.22,0.35,0.395,0.49,0.539
			c0.137,0.148,0.266,0.252,0.345,0.328c0.081,0.075,0.124,0.115,0.124,0.115c0.038,0.036,0.041,0.098,0.006,0.137
			C-60.189,23.528-60.248,23.531-60.287,23.499z"/>
	</g>
	<g>
		<path fill="#FFFFFF" d="M-99.479,23.493c0,0,0.043-0.04,0.125-0.115c0.078-0.076,0.207-0.18,0.344-0.328
			c0.141-0.145,0.311-0.319,0.49-0.539c0.094-0.105,0.185-0.226,0.278-0.353c0.098-0.125,0.197-0.258,0.291-0.403
			c0.1-0.142,0.197-0.293,0.29-0.455c0.099-0.158,0.188-0.33,0.277-0.507c0.181-0.352,0.336-0.74,0.484-1.145
			c0.131-0.41,0.258-0.839,0.328-1.286c0.082-0.444,0.116-0.904,0.126-1.362c-0.001-0.23,0.005-0.459-0.016-0.688
			c-0.009-0.229-0.034-0.448-0.065-0.684c-0.064-0.443-0.163-0.88-0.287-1.292c-0.252-0.826-0.604-1.558-0.976-2.143
			c-0.191-0.289-0.37-0.552-0.547-0.771c-0.172-0.224-0.336-0.409-0.475-0.557c-0.137-0.15-0.252-0.261-0.331-0.336
			c-0.078-0.076-0.12-0.116-0.12-0.116l-0.003-0.004c-0.038-0.037-0.04-0.098-0.002-0.136c0.035-0.037,0.094-0.039,0.132-0.006
			c0,0,0.045,0.038,0.13,0.111c0.085,0.072,0.209,0.179,0.359,0.324c0.151,0.144,0.331,0.324,0.521,0.544
			c0.196,0.215,0.398,0.476,0.603,0.771c0.402,0.594,0.807,1.341,1.081,2.201c0.135,0.431,0.243,0.885,0.316,1.357
			c0.033,0.224,0.062,0.467,0.075,0.707c0.024,0.239,0.021,0.48,0.024,0.721c-0.011,0.481-0.056,0.963-0.146,1.428
			c-0.078,0.469-0.215,0.916-0.357,1.343c-0.155,0.424-0.332,0.823-0.534,1.184c-0.099,0.182-0.197,0.355-0.305,0.517
			c-0.102,0.166-0.208,0.32-0.317,0.463c-0.207,0.294-0.425,0.543-0.625,0.754c-0.197,0.214-0.385,0.387-0.54,0.528
			c-0.153,0.145-0.283,0.237-0.367,0.31c-0.085,0.07-0.131,0.107-0.131,0.107c-0.041,0.034-0.102,0.028-0.136-0.014
			C-99.52,23.586-99.516,23.527-99.479,23.493z"/>
	</g>
	<g>
		<path fill="#FFFFFF" d="M-90.578-6.448c0,0,0,0.024-0.003,0.068c-0.001,0.04-0.01,0.126-0.034,0.211
			c-0.044,0.175-0.162,0.426-0.421,0.62c-0.129,0.096-0.292,0.171-0.479,0.202c-0.049,0.006-0.089,0.012-0.148,0.013
			c-0.043,0-0.08,0.003-0.137-0.004c-0.109-0.009-0.203-0.035-0.304-0.071c-0.197-0.075-0.379-0.213-0.509-0.398
			c-0.13-0.189-0.201-0.405-0.203-0.656c0.001-0.079,0.02-0.226,0.053-0.329c0.035-0.109,0.086-0.212,0.151-0.305
			c0.129-0.185,0.312-0.321,0.508-0.396c0.194-0.077,0.409-0.092,0.581-0.063c0.199,0.032,0.353,0.106,0.484,0.201
			c0.26,0.193,0.378,0.445,0.422,0.619c0.045,0.179,0.037,0.284,0.037,0.284V-6.448z M-90.771-6.453c0,0,0.004-0.087-0.036-0.231
			c-0.036-0.141-0.147-0.342-0.364-0.471c-0.105-0.062-0.244-0.104-0.37-0.111c-0.151-0.008-0.289,0.022-0.42,0.09
			c-0.129,0.068-0.24,0.175-0.318,0.3c-0.039,0.063-0.065,0.133-0.088,0.203c-0.021,0.079-0.027,0.121-0.03,0.231
			c0,0.128,0.043,0.29,0.12,0.412c0.078,0.125,0.189,0.229,0.317,0.298c0.062,0.032,0.137,0.062,0.198,0.072
			c0.026,0.009,0.075,0.013,0.115,0.018c0.023,0.002,0.067,0.002,0.099,0.001c0.138-0.007,0.268-0.049,0.376-0.11
			c0.217-0.128,0.328-0.329,0.365-0.47c0.022-0.075,0.027-0.121,0.031-0.168c0.002-0.045,0.004-0.068,0.004-0.068V-6.453z"/>
	</g>
	<g>
		<path fill="#FFFFFF" d="M-78.794-6.448c0,0-0.001,0.024-0.002,0.068c-0.002,0.04-0.01,0.126-0.034,0.211
			c-0.045,0.175-0.162,0.426-0.421,0.62c-0.128,0.096-0.292,0.171-0.478,0.202c-0.049,0.006-0.088,0.012-0.148,0.013
			c-0.043,0-0.08,0.003-0.138-0.004c-0.109-0.009-0.203-0.035-0.303-0.071c-0.197-0.075-0.379-0.213-0.509-0.398
			c-0.13-0.185-0.2-0.416-0.203-0.646c0.002-0.218,0.074-0.469,0.205-0.645c0.129-0.185,0.312-0.321,0.508-0.396
			c0.193-0.077,0.409-0.092,0.581-0.063c0.198,0.032,0.353,0.106,0.484,0.201c0.259,0.193,0.377,0.445,0.422,0.619
			c0.045,0.179,0.037,0.284,0.037,0.284V-6.448z M-78.987-6.453c0,0,0.004-0.087-0.035-0.231c-0.037-0.141-0.148-0.342-0.365-0.471
			c-0.105-0.062-0.244-0.104-0.37-0.111c-0.151-0.008-0.288,0.022-0.42,0.09c-0.129,0.068-0.239,0.175-0.318,0.3
			c-0.076,0.136-0.118,0.261-0.118,0.424c-0.004,0.301,0.18,0.585,0.437,0.721c0.063,0.032,0.137,0.062,0.198,0.072
			c0.026,0.009,0.075,0.013,0.115,0.018c0.024,0.002,0.067,0.002,0.099,0.001c0.138-0.007,0.268-0.049,0.376-0.11
			c0.217-0.128,0.328-0.329,0.365-0.47c0.021-0.075,0.028-0.121,0.031-0.168c0.002-0.045,0.004-0.068,0.004-0.068V-6.453z"/>
	</g>
	<g>
		<path fill="#FFFFFF" d="M-67.917-6.448c0,0-0.001,0.024-0.002,0.068c-0.002,0.04-0.011,0.126-0.034,0.211
			c-0.045,0.175-0.162,0.426-0.421,0.62c-0.129,0.096-0.293,0.171-0.479,0.202c-0.049,0.006-0.089,0.012-0.148,0.013
			c-0.043,0-0.08,0.003-0.137-0.004c-0.109-0.009-0.203-0.035-0.304-0.071c-0.198-0.075-0.38-0.213-0.509-0.398
			c-0.131-0.185-0.201-0.416-0.203-0.646c0.002-0.218,0.074-0.469,0.205-0.645c0.129-0.185,0.312-0.321,0.508-0.396
			c0.193-0.077,0.409-0.092,0.58-0.063c0.199,0.032,0.354,0.106,0.484,0.201c0.261,0.193,0.377,0.445,0.423,0.619
			c0.045,0.179,0.036,0.284,0.036,0.284V-6.448z M-68.111-6.453c0,0,0.004-0.087-0.035-0.231c-0.036-0.141-0.146-0.342-0.364-0.471
			c-0.105-0.062-0.244-0.104-0.37-0.111c-0.15-0.008-0.287,0.022-0.42,0.09c-0.129,0.068-0.238,0.175-0.318,0.3
			c-0.076,0.136-0.117,0.261-0.117,0.424c-0.005,0.301,0.18,0.585,0.438,0.721c0.062,0.032,0.137,0.062,0.197,0.072
			c0.026,0.009,0.075,0.013,0.115,0.018c0.023,0.002,0.067,0.002,0.1,0.001c0.138-0.007,0.268-0.049,0.375-0.11
			c0.217-0.128,0.328-0.329,0.365-0.47c0.021-0.075,0.027-0.121,0.031-0.168c0.003-0.045,0.004-0.068,0.004-0.068V-6.453z"/>
	</g>
	<g>
		<path fill="#FFFFFF" d="M-84.506-11.968c0,0-0.001,0.024-0.003,0.068c-0.001,0.041-0.009,0.127-0.033,0.211
			c-0.045,0.175-0.162,0.428-0.421,0.621c-0.129,0.095-0.292,0.17-0.479,0.201c-0.049,0.007-0.088,0.012-0.147,0.014
			c-0.044-0.001-0.08,0.003-0.138-0.005c-0.109-0.009-0.203-0.034-0.304-0.071c-0.197-0.074-0.379-0.213-0.509-0.398
			c-0.13-0.184-0.201-0.415-0.203-0.645c0.002-0.217,0.074-0.468,0.205-0.645c0.129-0.185,0.312-0.321,0.508-0.397
			c0.194-0.075,0.41-0.092,0.581-0.063c0.199,0.032,0.353,0.107,0.484,0.202c0.26,0.192,0.377,0.444,0.422,0.619
			c0.045,0.179,0.036,0.284,0.036,0.284V-11.968z M-84.699-11.972c0,0,0.004-0.088-0.035-0.23c-0.037-0.143-0.148-0.344-0.365-0.472
			c-0.105-0.062-0.245-0.104-0.37-0.111c-0.152-0.008-0.288,0.022-0.42,0.09c-0.129,0.068-0.24,0.174-0.318,0.3
			c-0.077,0.136-0.118,0.261-0.118,0.424c-0.005,0.301,0.179,0.584,0.437,0.721c0.062,0.032,0.137,0.061,0.198,0.072
			c0.026,0.01,0.075,0.012,0.115,0.017c0.024,0.002,0.067,0.003,0.099,0.002c0.138-0.008,0.268-0.049,0.375-0.11
			c0.217-0.128,0.329-0.33,0.366-0.471c0.021-0.075,0.027-0.119,0.031-0.168c0.002-0.044,0.004-0.067,0.004-0.067V-11.972z"/>
	</g>
	<g>
		<path fill="#FFFFFF" d="M-72.931-11.968c0,0-0.001,0.024-0.002,0.068c-0.002,0.041-0.01,0.127-0.034,0.211
			c-0.045,0.175-0.162,0.428-0.422,0.621c-0.128,0.095-0.292,0.17-0.478,0.201c-0.049,0.007-0.088,0.012-0.148,0.014
			c-0.043-0.001-0.08,0.003-0.137-0.005c-0.11-0.009-0.204-0.034-0.304-0.071c-0.198-0.074-0.379-0.213-0.509-0.398
			c-0.13-0.189-0.201-0.404-0.202-0.655c0.001-0.08,0.019-0.227,0.053-0.329c0.035-0.109,0.086-0.212,0.151-0.305
			c0.129-0.185,0.312-0.321,0.508-0.397c0.193-0.075,0.409-0.092,0.581-0.063c0.198,0.032,0.353,0.107,0.484,0.202
			c0.26,0.192,0.377,0.444,0.422,0.619c0.044,0.179,0.036,0.284,0.036,0.284V-11.968z M-73.125-11.972c0,0,0.004-0.088-0.035-0.23
			c-0.036-0.143-0.147-0.344-0.364-0.472c-0.105-0.062-0.244-0.104-0.37-0.111c-0.152-0.008-0.288,0.022-0.42,0.09
			c-0.129,0.068-0.239,0.174-0.318,0.3c-0.038,0.063-0.065,0.133-0.088,0.203c-0.02,0.078-0.027,0.121-0.03,0.23
			c0,0.13,0.043,0.29,0.12,0.412c0.078,0.126,0.189,0.229,0.317,0.299c0.063,0.032,0.137,0.061,0.198,0.072
			c0.026,0.01,0.075,0.012,0.115,0.017c0.024,0.002,0.067,0.003,0.099,0.002c0.138-0.008,0.268-0.049,0.375-0.11
			c0.217-0.128,0.329-0.33,0.365-0.471c0.021-0.075,0.028-0.119,0.031-0.168c0.003-0.044,0.004-0.067,0.004-0.067V-11.972z"/>
	</g>
</g>
<g>
	<path fill="#727373" d="M289.013,63.569c0.586,0,1.114,0.24,1.592,0.715l4.169,4.553c-3.218,3.731-7.124,6.64-11.715,8.724
		c-4.589,2.086-10.123,3.129-16.597,3.129c-5.67,0-10.81-0.979-15.418-2.937c-4.609-1.956-8.541-4.699-11.796-8.23
		c-3.257-3.528-5.78-7.762-7.572-12.701c-1.793-4.938-2.688-10.37-2.688-16.296c0-5.925,0.96-11.357,2.881-16.295
		c1.92-4.938,4.617-9.181,8.093-12.73c3.475-3.547,7.636-6.3,12.482-8.257c4.847-1.957,10.195-2.935,16.049-2.935
		c5.778,0,10.762,0.897,14.952,2.688c4.188,1.793,7.909,4.225,11.166,7.298l-3.458,4.883c-0.256,0.366-0.548,0.668-0.877,0.906
		c-0.33,0.238-0.806,0.356-1.427,0.356c-0.477,0-0.979-0.173-1.51-0.521c-0.53-0.347-1.162-0.777-1.893-1.29
		c-0.732-0.511-1.591-1.061-2.579-1.646c-0.988-0.585-2.158-1.133-3.511-1.646c-1.354-0.512-2.928-0.941-4.719-1.29
		c-1.793-0.347-3.859-0.521-6.2-0.521c-4.207,0-8.058,0.723-11.551,2.167c-3.492,1.446-6.502,3.503-9.025,6.173
		c-2.523,2.67-4.49,5.925-5.896,9.766c-1.41,3.841-2.113,8.14-2.113,12.894c0,4.902,0.703,9.273,2.113,13.113
		c1.406,3.842,3.327,7.088,5.761,9.74c2.431,2.652,5.312,4.673,8.64,6.062c3.329,1.39,6.914,2.085,10.756,2.085
		c2.34,0,4.443-0.138,6.309-0.412c1.866-0.274,3.594-0.703,5.186-1.289c1.592-0.585,3.072-1.326,4.443-2.222
		c1.373-0.896,2.753-1.967,4.143-3.21C287.824,63.845,288.427,63.569,289.013,63.569z"/>
	<path fill="#727373" d="M339.052,48.536v31.275h-10.59V48.536l-28.806-47.35h9.327c0.951,0,1.702,0.238,2.25,0.713
		c0.549,0.476,1.023,1.062,1.427,1.756l17.997,30.562c0.73,1.281,1.343,2.488,1.839,3.622c0.492,1.134,0.939,2.249,1.343,3.347
		c0.403-1.133,0.841-2.268,1.316-3.402c0.476-1.134,1.08-2.323,1.812-3.566l17.941-30.562c0.33-0.584,0.777-1.143,1.344-1.673
		c0.567-0.53,1.309-0.796,2.224-0.796h9.437L339.052,48.536z"/>
	<path fill="#727373" d="M417.815,54.16c0.385,0.97,0.76,1.948,1.125,2.936c0.365-1.024,0.749-2.002,1.152-2.936
		c0.402-0.934,0.858-1.873,1.371-2.826l26.612-48.339c0.474-0.84,0.969-1.353,1.48-1.536c0.513-0.183,1.243-0.274,2.195-0.274h7.846
		v78.625h-9.328V22.035c0-0.768,0.019-1.591,0.056-2.469c0.035-0.878,0.091-1.774,0.164-2.689l-26.939,49.162
		c-0.916,1.646-2.195,2.47-3.842,2.47h-1.535c-1.646,0-2.927-0.824-3.841-2.47l-27.544-49.326c0.108,0.951,0.192,1.884,0.246,2.797
		c0.055,0.916,0.082,1.756,0.082,2.524v57.775h-9.326V1.186h7.845c0.951,0,1.684,0.091,2.196,0.274
		c0.512,0.183,1.005,0.695,1.481,1.536l27.158,48.393C416.983,52.268,417.431,53.191,417.815,54.16z"/>
	<path fill="#727373" d="M543.435,79.811h-8.23c-0.951,0-1.72-0.237-2.305-0.713s-1.024-1.078-1.316-1.811l-7.353-18.985h-35.279
		l-7.353,18.985c-0.256,0.658-0.696,1.244-1.317,1.757c-0.622,0.512-1.391,0.767-2.305,0.767h-8.229l31.438-78.625h10.81
		L543.435,79.811z M491.914,50.621h29.354l-12.345-31.988c-0.806-1.976-1.591-4.444-2.359-7.407c-0.403,1.5-0.796,2.881-1.18,4.142
		c-0.384,1.262-0.759,2.37-1.125,3.32L491.914,50.621z"/>
	<path fill="#727373" d="M571.637,39.429L545.685,1.186h10.59c0.768,0,1.335,0.128,1.7,0.384c0.366,0.257,0.694,0.623,0.988,1.098
		l20.521,31.494c0.255-0.769,0.64-1.609,1.151-2.524l19.368-28.751c0.33-0.512,0.687-0.923,1.07-1.234
		c0.385-0.31,0.851-0.466,1.399-0.466h10.15l-26.062,37.749l26.939,40.876h-10.535c-0.805,0-1.436-0.209-1.893-0.631
		c-0.457-0.42-0.832-0.886-1.125-1.398l-21.069-32.976c-0.256,0.769-0.585,1.5-0.986,2.195l-20.521,30.781
		c-0.329,0.513-0.705,0.979-1.125,1.398c-0.421,0.422-1.016,0.631-1.783,0.631h-9.876L571.637,39.429z"/>
</g>
<g>
	<path fill="#FAA31A" d="M237.855,139.454v28.704h-9.265V99.374h19.44c4.351,0,8.111,0.439,11.28,1.32
		c3.167,0.88,5.784,2.152,7.848,3.815c2.064,1.664,3.592,3.673,4.583,6.024c0.992,2.353,1.488,4.984,1.488,7.896
		c0,2.432-0.384,4.703-1.151,6.815c-0.769,2.111-1.88,4.008-3.337,5.688c-1.456,1.681-3.231,3.112-5.327,4.297
		c-2.097,1.185-4.472,2.08-7.128,2.688c1.151,0.672,2.175,1.648,3.071,2.928l20.065,27.312h-8.257c-1.696,0-2.944-0.655-3.744-1.969
		l-17.855-24.576c-0.545-0.768-1.137-1.319-1.776-1.655c-0.641-0.336-1.601-0.504-2.88-0.504H237.855z M237.855,132.687h9.743
		c2.72,0,5.113-0.328,7.176-0.985c2.065-0.655,3.792-1.583,5.185-2.783c1.392-1.2,2.439-2.632,3.145-4.296
		c0.703-1.663,1.056-3.504,1.056-5.521c0-4.096-1.353-7.183-4.056-9.264c-2.705-2.079-6.729-3.12-12.072-3.12h-10.176V132.687z"/>
	<path fill="#FAA31A" d="M331.838,99.374v7.584h-33.024v22.848h26.736v7.297h-26.736v23.472h33.024v7.584h-42.384V99.374H331.838z"
		/>
	<path fill="#FAA31A" d="M393.709,153.95c0.512,0,0.976,0.208,1.393,0.623l3.647,3.985c-2.816,3.264-6.233,5.808-10.247,7.631
		c-4.017,1.825-8.856,2.736-14.521,2.736c-4.96,0-9.455-0.855-13.487-2.567s-7.473-4.112-10.32-7.2s-5.056-6.793-6.624-11.112
		s-2.353-9.072-2.353-14.256s0.841-9.936,2.521-14.256s4.04-8.032,7.08-11.136s6.68-5.513,10.92-7.225
		c4.24-1.711,8.92-2.567,14.04-2.567c5.056,0,9.416,0.784,13.08,2.352c3.664,1.568,6.92,3.696,9.769,6.384l-3.024,4.271
		c-0.225,0.32-0.479,0.585-0.768,0.792c-0.288,0.209-0.705,0.312-1.249,0.312c-0.416,0-0.855-0.151-1.319-0.456
		c-0.465-0.304-1.017-0.679-1.656-1.128c-0.64-0.447-1.392-0.927-2.256-1.44c-0.864-0.511-1.888-0.991-3.072-1.438
		c-1.185-0.449-2.561-0.824-4.128-1.129c-1.567-0.304-3.376-0.456-5.424-0.456c-3.681,0-7.049,0.632-10.104,1.896
		c-3.057,1.265-5.688,3.065-7.896,5.4c-2.208,2.337-3.929,5.185-5.16,8.544c-1.232,3.36-1.848,7.12-1.848,11.28
		c0,4.289,0.615,8.111,1.848,11.472c1.231,3.36,2.912,6.2,5.04,8.521s4.648,4.089,7.56,5.304c2.912,1.217,6.048,1.824,9.408,1.824
		c2.048,0,3.889-0.12,5.521-0.359c1.632-0.241,3.145-0.616,4.536-1.129c1.393-0.512,2.688-1.16,3.889-1.943
		c1.199-0.784,2.406-1.721,3.623-2.809C392.669,154.19,393.197,153.95,393.709,153.95z"/>
	<path fill="#FAA31A" d="M437.485,140.798v27.36h-9.264v-27.36l-25.199-41.424h8.159c0.832,0,1.488,0.209,1.969,0.624
		c0.479,0.416,0.895,0.929,1.247,1.536l15.744,26.736c0.641,1.12,1.177,2.176,1.607,3.167c0.433,0.993,0.824,1.969,1.177,2.929
		c0.352-0.991,0.735-1.984,1.152-2.976c0.415-0.992,0.943-2.032,1.584-3.12l15.695-26.736c0.288-0.512,0.68-1,1.177-1.465
		c0.495-0.463,1.143-0.695,1.943-0.695h8.257L437.485,140.798z"/>
	<path fill="#FAA31A" d="M516.014,153.95c0.511,0,0.976,0.208,1.392,0.623l3.647,3.985c-2.816,3.264-6.232,5.808-10.247,7.631
		c-4.017,1.825-8.856,2.736-14.521,2.736c-4.96,0-9.456-0.855-13.488-2.567c-4.031-1.712-7.472-4.112-10.319-7.2
		c-2.849-3.088-5.057-6.793-6.624-11.112c-1.568-4.319-2.353-9.072-2.353-14.256s0.84-9.936,2.52-14.256
		c1.681-4.32,4.04-8.032,7.08-11.136s6.681-5.513,10.921-7.225c4.239-1.711,8.919-2.567,14.04-2.567
		c5.056,0,9.415,0.784,13.079,2.352c3.664,1.568,6.92,3.696,9.769,6.384l-3.024,4.271c-0.225,0.32-0.479,0.585-0.768,0.792
		c-0.288,0.209-0.704,0.312-1.248,0.312c-0.417,0-0.856-0.151-1.32-0.456c-0.465-0.304-1.017-0.679-1.655-1.128
		c-0.641-0.447-1.393-0.927-2.257-1.44c-0.864-0.511-1.888-0.991-3.072-1.438c-1.184-0.449-2.56-0.824-4.128-1.129
		c-1.567-0.304-3.376-0.456-5.423-0.456c-3.681,0-7.049,0.632-10.104,1.896c-3.056,1.265-5.688,3.065-7.896,5.4
		c-2.208,2.337-3.928,5.185-5.159,8.544c-1.233,3.36-1.849,7.12-1.849,11.28c0,4.289,0.615,8.111,1.849,11.472
		c1.231,3.36,2.911,6.2,5.04,8.521c2.128,2.32,4.647,4.089,7.56,5.304c2.911,1.217,6.048,1.824,9.408,1.824
		c2.047,0,3.888-0.12,5.52-0.359c1.632-0.241,3.145-0.616,4.537-1.129c1.392-0.512,2.688-1.16,3.888-1.943
		c1.199-0.784,2.406-1.721,3.623-2.809C514.973,154.19,515.501,153.95,516.014,153.95z"/>
	<path fill="#FAA31A" d="M542.606,160.334h29.76v7.824h-39.072V99.374h9.312V160.334z"/>
	<path fill="#FAA31A" d="M625.021,99.374v7.584h-33.024v22.848h26.736v7.297h-26.736v23.472h33.024v7.584h-42.384V99.374H625.021z"
		/>
	<path fill="#FAA31A" d="M698.028,133.79c0,5.153-0.816,9.84-2.448,14.064c-1.632,4.223-3.936,7.84-6.912,10.847
		c-2.976,3.01-6.544,5.337-10.703,6.984c-4.16,1.648-8.769,2.473-13.824,2.473h-25.728V99.374h25.728
		c5.056,0,9.664,0.824,13.824,2.473c4.159,1.647,7.728,3.983,10.703,7.007c2.977,3.024,5.28,6.648,6.912,10.873
		C697.211,123.95,698.028,128.639,698.028,133.79z M688.476,133.79c0-4.225-0.576-8-1.729-11.328
		c-1.151-3.328-2.784-6.145-4.896-8.447c-2.111-2.305-4.673-4.064-7.68-5.28c-3.009-1.217-6.354-1.825-10.032-1.825h-16.368v53.713
		h16.368c3.679,0,7.023-0.607,10.032-1.824c3.007-1.215,5.568-2.968,7.68-5.256c2.111-2.287,3.744-5.096,4.896-8.424
		C687.9,141.79,688.476,138.014,688.476,133.79z"/>
</g>
<g>
	<g>
		<path fill="#727373" d="M122.608,105.731H71.902c-0.971,0-1.757-0.786-1.757-1.757v-2.135c0-0.969,0.786-1.756,1.757-1.756h50.706
			c0.969,0,1.756,0.787,1.756,1.756v2.135C124.364,104.945,123.577,105.731,122.608,105.731z"/>
	</g>
	<g>
		<path fill="#727373" d="M95.004,97.498h22.44c0.697,0,1.379,0.182,1.965,0.523l3.953,2.308c0,0-25.458,0.151-25.458,0h-1.4
			c0,0.151-25.458,0-25.458,0l3.797-2.216c0.688-0.402,1.49-0.615,2.309-0.615h22.253H95.004z"/>
	</g>
	<g>
		<path fill="#8E8E8E" d="M80.239,100.902c0,0,2.072-0.033,5.181-0.083c1.554-0.013,3.367-0.028,5.311-0.044
			c1.942-0.006,4.015-0.012,6.087-0.019c2.072,0.007,4.144,0.013,6.087,0.019c1.943,0.018,3.756,0.032,5.311,0.045
			c3.109,0.049,5.182,0.082,5.182,0.082c0.068,0.001,0.123,0.058,0.123,0.127c-0.002,0.068-0.057,0.122-0.123,0.123
			c0,0-2.072,0.033-5.182,0.082c-1.555,0.013-3.367,0.027-5.311,0.045c-1.943,0.006-4.016,0.012-6.087,0.019
			c-2.072-0.006-4.145-0.013-6.087-0.019c-1.943-0.016-3.757-0.031-5.311-0.044c-3.108-0.05-5.181-0.083-5.181-0.083
			c-0.069-0.001-0.125-0.058-0.124-0.127C80.116,100.957,80.172,100.903,80.239,100.902z"/>
	</g>
	<g>
		<path fill="#727373" d="M112.784,98.799l2.686,0.377c0.746,0.104,1.426-0.49,1.518-1.33l4.99-45.092
			c0.092-0.839-0.436-1.604-1.182-1.709l-2.686-0.376c-0.746-0.104-1.426,0.491-1.518,1.33l-4.99,45.091
			C111.51,97.93,112.038,98.695,112.784,98.799z"/>
	</g>
	<g>
		<path fill="#727373" d="M82.269,98.799l-2.685,0.377c-0.745,0.104-1.425-0.49-1.518-1.33l-4.99-45.092
			c-0.093-0.839,0.437-1.604,1.182-1.709l2.686-0.376c0.745-0.104,1.425,0.491,1.518,1.33L83.45,97.09
			C83.543,97.93,83.015,98.695,82.269,98.799z"/>
	</g>
	<g>
		<rect x="79.416" y="68.592" fill="#727373" width="35.813" height="7.867"/>
	</g>
	<g>
		<rect x="76.702" y="56.654" fill="#727373" width="41.24" height="5.969"/>
	</g>
	<g>
		<path fill="#727373" d="M112.245,60.814H82.671c-2.047,0-3.707-1.66-3.707-3.709l0,0c0-2.047,1.66-3.707,3.707-3.707h29.574
			c2.047,0,3.707,1.66,3.707,3.707l0,0C115.952,59.154,114.292,60.814,112.245,60.814z"/>
	</g>
	<g>
		<path fill="#727373" d="M119.448,101.211c0,0,0.25,0.703,0.627,1.944c0.188,0.62,0.42,1.374,0.654,2.243
			c0.246,0.867,0.518,1.847,0.781,2.92c0.277,1.072,0.568,2.234,0.854,3.468s0.574,2.536,0.857,3.887
			c0.566,2.7,1.107,5.592,1.6,8.491c0.24,1.451,0.477,2.902,0.688,4.335c0.213,1.432,0.414,2.843,0.586,4.212
			c0.18,1.367,0.332,2.693,0.471,3.951c0.141,1.259,0.242,2.453,0.34,3.555c0.197,2.204,0.299,4.051,0.355,5.347
			c0.035,0.646,0.035,1.159,0.049,1.507c0.004,0.349,0.006,0.534,0.006,0.534c0.01,0.7-0.551,1.275-1.25,1.284
			c-0.564,0.007-1.047-0.357-1.219-0.865c0,0-0.059-0.176-0.17-0.507c-0.102-0.332-0.27-0.816-0.449-1.438
			c-0.375-1.241-0.889-3.019-1.428-5.165c-0.271-1.072-0.568-2.233-0.852-3.468c-0.285-1.233-0.576-2.535-0.857-3.886
			c-0.289-1.35-0.564-2.748-0.836-4.17c-0.273-1.422-0.529-2.87-0.779-4.319c-0.492-2.899-0.934-5.808-1.291-8.544
			c-0.178-1.368-0.334-2.692-0.473-3.951c-0.137-1.259-0.244-2.452-0.336-3.556c-0.105-1.101-0.172-2.115-0.227-3.014
			c-0.064-0.898-0.094-1.686-0.121-2.334c-0.053-1.296-0.049-2.043-0.049-2.043c0.004-0.701,0.576-1.268,1.279-1.264
			C118.807,100.369,119.274,100.723,119.448,101.211z"/>
	</g>
	<g>
		<path fill="#727373" d="M77.938,101.629c0,0,0.004,0.747-0.05,2.043c-0.027,0.648-0.056,1.436-0.121,2.334
			c-0.054,0.898-0.122,1.913-0.226,3.014c-0.092,1.104-0.199,2.297-0.337,3.556c-0.139,1.259-0.294,2.583-0.473,3.951
			c-0.356,2.736-0.798,5.645-1.29,8.544c-0.251,1.449-0.507,2.897-0.78,4.319c-0.271,1.422-0.546,2.82-0.835,4.17
			c-0.281,1.351-0.574,2.652-0.859,3.886c-0.281,1.234-0.58,2.396-0.851,3.468c-0.539,2.146-1.052,3.924-1.427,5.165
			c-0.18,0.622-0.348,1.106-0.45,1.438c-0.111,0.331-0.17,0.507-0.17,0.507c-0.223,0.664-0.94,1.021-1.604,0.8
			c-0.535-0.18-0.871-0.683-0.865-1.219c0,0,0.003-0.186,0.008-0.534c0.013-0.348,0.013-0.86,0.048-1.507
			c0.056-1.296,0.157-3.143,0.356-5.347c0.098-1.102,0.199-2.296,0.34-3.555c0.138-1.258,0.291-2.584,0.47-3.951
			c0.173-1.369,0.374-2.78,0.587-4.212c0.211-1.433,0.447-2.884,0.688-4.335c0.491-2.899,1.033-5.791,1.6-8.491
			c0.281-1.351,0.572-2.653,0.856-3.887s0.577-2.396,0.854-3.468c0.265-1.073,0.536-2.053,0.781-2.92
			c0.234-0.869,0.467-1.623,0.654-2.243c0.377-1.241,0.627-1.944,0.627-1.944c0.235-0.662,0.963-1.008,1.624-0.771
			C77.609,100.623,77.934,101.11,77.938,101.629z"/>
	</g>
	<g>
		<path fill="#727373" d="M84.682,104.793c0,0-0.012,0.608-0.074,1.666c-0.062,1.059-0.166,2.568-0.35,4.369
			c-0.085,0.902-0.185,1.877-0.313,2.906c-0.12,1.029-0.247,2.114-0.41,3.231c-0.159,1.118-0.305,2.277-0.493,3.447
			c-0.176,1.173-0.376,2.36-0.574,3.549c-0.206,1.187-0.414,2.373-0.634,3.538c-0.215,1.166-0.457,2.308-0.675,3.416
			c-0.212,1.109-0.461,2.174-0.681,3.187c-0.215,1.014-0.449,1.967-0.661,2.847c-0.421,1.761-0.816,3.221-1.104,4.24
			c-0.287,1.021-0.475,1.6-0.475,1.6c-0.15,0.466-0.649,0.721-1.114,0.57c-0.383-0.123-0.623-0.482-0.613-0.863
			c0,0,0.014-0.608,0.079-1.666c0.064-1.059,0.172-2.567,0.354-4.368c0.091-0.9,0.184-1.878,0.314-2.905
			c0.127-1.028,0.243-2.115,0.408-3.232c0.16-1.118,0.309-2.276,0.49-3.448c0.176-1.173,0.371-2.361,0.568-3.549
			c0.204-1.187,0.406-2.374,0.627-3.539c0.208-1.167,0.452-2.31,0.671-3.417c0.214-1.109,0.453-2.176,0.679-3.188
			c0.217-1.013,0.445-1.967,0.662-2.846c0.42-1.762,0.82-3.221,1.11-4.24s0.479-1.598,0.479-1.598
			c0.152-0.466,0.653-0.719,1.118-0.566C84.45,104.058,84.688,104.414,84.682,104.793z"/>
	</g>
	<g>
		<path fill="#727373" d="M112.104,104.473c0,0,0.184,0.582,0.461,1.604s0.662,2.486,1.061,4.253
			c0.207,0.881,0.424,1.838,0.629,2.854c0.215,1.014,0.441,2.083,0.641,3.194c0.207,1.11,0.438,2.255,0.631,3.425
			c0.207,1.167,0.396,2.357,0.586,3.546c0.184,1.19,0.365,2.381,0.527,3.556c0.168,1.174,0.303,2.334,0.449,3.453
			c0.152,1.119,0.256,2.208,0.371,3.238c0.117,1.028,0.199,2.006,0.279,2.908c0.162,1.803,0.252,3.313,0.305,4.371
			c0.053,1.059,0.059,1.667,0.059,1.667c0.008,0.489-0.385,0.891-0.875,0.896c-0.4,0.005-0.742-0.259-0.855-0.623
			c0,0-0.18-0.581-0.457-1.604c-0.275-1.023-0.654-2.488-1.053-4.254c-0.203-0.883-0.426-1.838-0.629-2.854
			c-0.207-1.015-0.443-2.083-0.643-3.194c-0.205-1.11-0.434-2.256-0.635-3.424c-0.207-1.168-0.4-2.356-0.592-3.546
			c-0.186-1.189-0.371-2.38-0.533-3.555c-0.176-1.172-0.307-2.332-0.453-3.453c-0.15-1.119-0.264-2.205-0.373-3.236
			c-0.115-1.029-0.203-2.006-0.279-2.908c-0.162-1.804-0.248-3.314-0.297-4.373c-0.051-1.059-0.055-1.668-0.055-1.668
			c-0.004-0.49,0.389-0.889,0.879-0.893C111.651,103.85,111.991,104.112,112.104,104.473z"/>
	</g>
	<g>
		<path fill="#727373" d="M115.01,126.659c0,0,0.174,0.029,0.461,0.107s0.693,0.198,1.158,0.379
			c0.939,0.341,2.119,0.922,3.236,1.603c1.117,0.682,2.174,1.462,2.914,2.135c0.375,0.328,0.67,0.63,0.873,0.847
			c0.203,0.218,0.311,0.356,0.311,0.356c0.229,0.292,0.174,0.713-0.117,0.94c-0.156,0.121-0.352,0.162-0.531,0.13
			c0,0-0.172-0.031-0.459-0.11s-0.691-0.202-1.154-0.383c-0.939-0.345-2.121-0.921-3.242-1.596c-1.119-0.676-2.18-1.451-2.918-2.128
			c-0.375-0.328-0.668-0.632-0.871-0.851s-0.309-0.358-0.309-0.358c-0.225-0.296-0.168-0.719,0.129-0.943
			C114.643,126.67,114.834,126.63,115.01,126.659z"/>
	</g>
	<g>
		<path fill="#727373" d="M80.645,127.73c0,0-0.106,0.14-0.309,0.358s-0.496,0.522-0.871,0.851
			c-0.738,0.677-1.798,1.452-2.919,2.128c-1.121,0.675-2.302,1.251-3.241,1.596c-0.464,0.181-0.868,0.304-1.154,0.383
			c-0.287,0.079-0.459,0.11-0.459,0.11c-0.364,0.066-0.713-0.176-0.779-0.54c-0.035-0.194,0.019-0.386,0.131-0.53
			c0,0,0.106-0.139,0.31-0.356c0.203-0.217,0.499-0.519,0.874-0.847c0.739-0.673,1.797-1.453,2.914-2.135
			c1.118-0.681,2.296-1.262,3.237-1.603c0.464-0.181,0.869-0.301,1.157-0.379c0.287-0.078,0.461-0.107,0.461-0.107
			c0.366-0.062,0.714,0.184,0.776,0.55C80.805,127.4,80.752,127.587,80.645,127.73z"/>
	</g>
</g>
</svg>
